<svg width="24" height="24" viewBox="0 0 24 24" fill="none" xmlns="http://www.w3.org/2000/svg">
<path d="M13.9285 19.5C13.9285 20.8808 12.7775 22 11.3573 22C9.93696 22 8.78596 20.8809 8.78596 19.5V18.25H13.9285V19.5ZM12.6424 2C15.2138 2 16.4998 5.28867 16.4998 8.81836C16.4997 10.1819 15.9731 11.7933 15.2147 12.9092C14.5566 13.8775 13.9285 14.648 13.9285 17H8.78596L8.14436 14.7529C7.85187 13.7291 7.61741 12.6816 7.53987 11.6152C7.4471 10.3384 7.5129 9.05281 7.78889 7.80371C8.73383 3.52771 10.8257 2.00027 12.6424 2ZM9.99983 6V13H13.9998V11.5H11.4998V6H9.99983Z" fill="black"/>
</svg>
