<svg width="24" height="24" viewBox="0 0 24 24" fill="none" xmlns="http://www.w3.org/2000/svg">
<path d="M15.2137 18.25V19.5C15.2137 20.8809 14.0627 22 12.6425 22C11.2223 21.9999 10.0712 20.8808 10.0712 19.5V18.25H15.2137ZM11.3573 2C13.174 2.00019 15.2659 3.52763 16.2108 7.80371C16.4868 9.05279 16.5536 10.3384 16.4608 11.6152C16.3833 12.6816 16.1478 13.7291 15.8553 14.7529L15.2137 17H10.0712C10.0712 14.6483 9.44404 13.8774 8.78601 12.9092C8.02752 11.7933 7.49998 10.1819 7.49988 8.81836C7.49988 5.28867 8.78591 2 11.3573 2ZM9.99988 6V13H11.5516V10.3574H11.9237L13.2489 13H14.9999L13.5302 10.2275C13.9958 10.0746 14.347 9.81574 14.5829 9.4502C14.8248 9.0847 14.9451 8.66923 14.9452 8.2041C14.9452 7.79197 14.8579 7.41928 14.6825 7.08691C14.5071 6.74788 14.2406 6.48184 13.8837 6.28906C13.5328 6.09635 13.1064 6 12.6044 6H9.99988ZM12.5135 7.41602C12.7979 7.41602 13.0102 7.49261 13.1493 7.64551C13.2943 7.79836 13.3671 8.00776 13.3671 8.27344C13.3671 8.55257 13.2944 8.76899 13.1493 8.92188C13.0102 9.07477 12.7979 9.15137 12.5135 9.15137H11.5516V7.41602H12.5135Z" fill="black"/>
</svg>
